<svg id="Capa_1" data-name="Capa 1" xmlns="http://www.w3.org/2000/svg" viewBox="0 0 612 612"><defs><style>.cls-1{fill:#656d6d;}</style></defs><title>cogwheel-outline</title><path class="cls-1" d="M343,612H269a28.5,28.5,0,0,1-28.47-25.75L233,540.81a245.24,245.24,0,0,1-41.32-17.14l-38.06,27.18A28,28,0,0,1,136,556.93a28.42,28.42,0,0,1-20.24-8.39l-52.3-52.3a28.52,28.52,0,0,1-1.9-38.36l26.78-37.51a244.56,244.56,0,0,1-17.14-41.31l-46.11-7.7C11.08,370,0,357.78,0,343V269a28.52,28.52,0,0,1,25.75-28.48l45.45-7.6a245.25,245.25,0,0,1,17.13-41.3L61.15,153.57c-9-10.87-8.15-27.35,2.31-37.79l52.31-52.32c10.08-10.06,27.35-10.9,38.33-1.92l37.56,26.79A243.91,243.91,0,0,1,233,71.19l7.68-46.1C242,11.07,254.24,0,269,0h74a28.53,28.53,0,0,1,28.48,25.73l7.6,45.47a244.75,244.75,0,0,1,41.29,17.13l38.07-27.18A28,28,0,0,1,476,55.08a28.41,28.41,0,0,1,20.23,8.37l52.3,52.32a28.5,28.5,0,0,1,1.94,38.32l-26.79,37.54a243.77,243.77,0,0,1,17.13,41.3l46.11,7.7C600.94,242,612,254.24,612,269v74a28.44,28.44,0,0,1-25.77,28.45L540.81,379a244.34,244.34,0,0,1-17.13,41.32l27.18,38.05c9,10.91,8.11,27.4-2.35,37.82l-52.29,52.29c-10,10.05-27.35,10.94-38.36,1.91l-37.51-26.77a244.27,244.27,0,0,1-41.29,17.14l-7.71,46.12C370,600.93,357.75,612,343,612ZM190.91,501.64a10,10,0,0,1,4.95,1.29,225.35,225.35,0,0,0,48.79,20.24,10.12,10.12,0,0,1,7.22,8.07l8.71,52.34c.51,4.87,4.18,8.18,8.43,8.18h74a8.43,8.43,0,0,0,8.33-7.51l8.83-53a10.1,10.1,0,0,1,7.22-8.06,225.29,225.29,0,0,0,48.76-20.25,10.08,10.08,0,0,1,10.82.6l43.19,30.85c4.36,3.51,8.8,2.78,11.75-.16l52.31-52.31a8.35,8.35,0,0,0,.59-11.23L503.52,427a10.12,10.12,0,0,1-.6-10.83,222.82,222.82,0,0,0,20.23-48.76,10.11,10.11,0,0,1,8.08-7.23l52.35-8.73c4.88-.51,8.18-4.16,8.18-8.41V269a8.44,8.44,0,0,0-7.51-8.34l-53-8.82a10.12,10.12,0,0,1-8.08-7.23,222.7,222.7,0,0,0-20.23-48.74,10.12,10.12,0,0,1,.6-10.83l30.87-43.21c3.13-3.86,2.87-8.68-.18-11.73L481.91,77.8a8.58,8.58,0,0,0-11.2-.58L427,108.5a10.1,10.1,0,0,1-10.82.6,224.77,224.77,0,0,0-48.76-20.25,10.1,10.1,0,0,1-7.22-8.07l-8.72-52.34c-.54-5-4.13-8.21-8.45-8.21H269a8.33,8.33,0,0,0-8.34,7.51l-8.8,53a10.1,10.1,0,0,1-7.22,8.07,223.7,223.7,0,0,0-48.75,20.25,10.11,10.11,0,0,1-10.83-.6L141.83,77.58c-4.35-3.48-8.81-2.78-11.75.18L77.77,130.08a8.32,8.32,0,0,0-.56,11.19L108.47,185a10.12,10.12,0,0,1,.6,10.83,224.62,224.62,0,0,0-20.25,48.75,10.1,10.1,0,0,1-8.07,7.22l-52.34,8.73c-5,.53-8.18,4.12-8.18,8.45v74a8.3,8.3,0,0,0,7.49,8.32l53,8.82a10.1,10.1,0,0,1,8.07,7.23,225.37,225.37,0,0,0,20.25,48.78,10.08,10.08,0,0,1-.6,10.81L77.61,470.14c-3.15,3.88-2.91,8.7.15,11.76l52.31,52.3a8.52,8.52,0,0,0,11.21.58L185,503.52A10.19,10.19,0,0,1,190.91,501.64ZM306,427A121.07,121.07,0,1,1,427.08,306,121.2,121.2,0,0,1,306,427Zm0-221.91A100.84,100.84,0,1,0,406.85,306,101,101,0,0,0,306,205.14Z"/></svg>